#!OML:ASF H:\LiuWeirdWalks\Patient Classification 1\Patient 1\Session 1\male.ASF
:FULLY-SPECIFIED
:DEGREES
813
root 0.338026 17.8733 0.21085 -0.163313 3.23641 -8.53677
lowerback 3.218 3.88006 6.92457
upperback -0.315293 5.50886 3.16764
thorax -1.79262 2.6931 -0.834203
lowerneck -15.9866 -1.02569 3.79321
upperneck 19.5545 -1.36221 -4.54969
head 8.6779 -0.838654 -2.33619
rclavicle -5.67033e-014 -5.46658e-014
rhumerus -33.7686 -5.40288 -81.7731
rradius 41.1915
rwrist -11.5747
rhand -18.3889 -4.58668
rfingers 7.12502
rthumb 7.89495 -34.4193
lclavicle -5.67033e-014 -5.46658e-014
lhumerus -48.744 1.94139 80.7494
lradius 38.064
lwrist 15.2346
lhand -13.15 0.292523
lfingers 7.12502
lthumb 12.9486 29.8707
rfemur 13.2194 0.209566 34.7412
rtibia 7.29401
rfoot -9.09486 -18.7775
rtoes -5.7316
lfemur -29.7527 -0.114163 -10.2231
ltibia 25.108
lfoot -13.6926 13.448
ltoes -17.6978
814
root 0.354869 17.8656 0.273704 -0.0459398 3.20682 -8.55107
lowerback 3.13175 3.9138 6.90449
upperback -0.347723 5.54685 3.16665
thorax -1.77724 2.71221 -0.820186
lowerneck -16.0274 -1.04551 3.73004
upperneck 19.5368 -1.38483 -4.50639
head 8.67923 -0.849819 -2.31381
rclavicle -2.49351e-014 1.05356e-014
rhumerus -33.7437 -5.46976 -81.762
rradius 41.0275
rwrist -11.5533
rhand -18.3553 -4.5559
rfingers 7.12502
rthumb 7.92745 -34.3873
lclavicle -2.49351e-014 1.05356e-014
lhumerus -48.7823 2.08689 80.6595
lradius 37.8867
lwrist 15.0763
lhand -13.1437 0.26154
lfingers 7.12502
lthumb 12.9546 29.8394
rfemur 13.1618 0.302852 34.7051
rtibia 7.62613
rfoot -9.29096 -18.8144
rtoes -6.02829
lfemur -29.5557 -0.248905 -10.2285
ltibia 25.1082
lfoot -13.828 13.2266
ltoes -17.7609
815
root 0.371902 17.8586 0.337336 0.0849283 3.16784 -8.55804
lowerback 3.04961 3.9507 6.87739
upperback -0.391254 5.58988 3.16004
thorax -1.77547 2.73329 -0.808993
lowerneck -16.0602 -1.0615 3.69042
upperneck 19.5005 -1.40406 -4.48246
head 8.67252 -0.859734 -2.30107
rclavicle -3.99433e-014 -1.98785e-016
rhumerus -33.734 -5.54988 -81.7517
rradius 40.8572
rwrist -11.5163
rhand -18.3379 -4.51699
rfingers 7.12502
rthumb 7.9442 -34.3477
lclavicle -3.99433e-014 -1.98785e-016
lhumerus -48.8146 2.23052 80.5635
lradius 37.6895
lwrist 14.9225
lhand -13.1421 0.266122
lfingers 7.12502
lthumb 12.9562 29.8439
rfemur 13.1185 0.40765 34.6665
rtibia 7.90958
rfoot -9.45491 -18.8556
rtoes -6.29717
lfemur -29.3754 -0.366559 -10.2441
ltibia 25.1037
lfoot -13.9355 13.066
ltoes -17.8341
816
root 0.388802 17.8532 0.401095 0.232361 3.12466 -8.5597
lowerback 2.97178 3.99088 6.84013
upperback -0.440954 5.63776 3.15133
thorax -1.78298 2.75653 -0.795141
lowerneck -16.1123 -1.08614 3.62685
upperneck 19.5018 -1.43394 -4.43535
head 8.6821 -0.873914 -2.27874
rclavicle 6.07101e-014 1.31198e-014
rhumerus -33.726 -5.63942 -81.7367
rradius 40.684
rwrist -11.4749
rhand -18.3239 -4.47657
rfingers 7.12502
rthumb 7.95769 -34.3068
lclavicle 6.07101e-014 1.31198e-014
lhumerus -48.8408 2.362 80.4738
lradius 37.4951
lwrist 14.7756
lhand -13.1377 0.284084
lfingers 7.12502
lthumb 12.9605 29.8616
rfemur 13.2062 0.519483 34.6331
rtibia 7.89781
rfoot -9.46674 -18.8741
rtoes -6.51748
lfemur -29.2083 -0.461298 -10.2675
ltibia 25.0348
lfoot -13.9517 12.9714
ltoes -17.9914
817
root 0.405838 17.8501 0.465531 0.391074 3.08655 -8.53652
lowerback 2.88997 4.02872 6.78048
upperback -0.501989 5.68194 3.12995
thorax -1.80107 2.77763 -0.782149
lowerneck -16.1267 -1.1023 3.60965
upperneck 19.4894 -1.45733 -4.41425
head 8.67978 -0.884121 -2.2714
rclavicle 2.46276e-014 1.63003e-014
rhumerus -33.7405 -5.7448 -81.7249
rradius 40.5044
rwrist -11.4187
rhand -18.3135 -4.42008
rfingers 7.12502
rthumb 7.96775 -34.2499
lclavicle 2.46276e-014 1.63003e-014
lhumerus -48.8807 2.48359 80.3766
lradius 37.3026
lwrist 14.6529
lhand -13.1398 0.28646
lfingers 7.12502
lthumb 12.9584 29.8641
rfemur 13.4352 0.62868 34.5803
rtibia 7.58638
rfoot -9.31657 -18.8661
rtoes -6.70503
lfemur -29.0583 -0.53629 -10.3209
ltibia 24.8994
lfoot -13.8592 12.9447
ltoes -18.168
818
root 0.422499 17.8496 0.529999 0.56162 3.06425 -8.49311
lowerback 2.81985 4.06337 6.69487
upperback -0.578748 5.72311 3.10111
thorax -1.84393 2.79657 -0.764262
lowerneck -16.1307 -1.11749 3.59792
upperneck 19.4889 -1.48109 -4.38895
head 8.6796 -0.893491 -2.26368
rclavicle -3.74274e-015 9.93923e-016
rhumerus -33.7737 -5.8692 -81.7081
rradius 40.317
rwrist -11.3484
rhand -18.3053 -4.37422
rfingers 7.12502
rthumb 7.97566 -34.2037
lclavicle -3.74274e-015 9.93923e-016
lhumerus -48.9403 2.59308 80.2769
lradius 37.1197
lwrist 14.5418
lhand -13.1526 0.283687
lfingers 7.12502
lthumb 12.9461 29.8621
rfemur 13.6921 0.724551 34.511
rtibia 7.19259
rfoot -9.11143 -18.8546
rtoes -6.87276
lfemur -28.9693 -0.58631 -10.3988
ltibia 24.766
lfoot -13.7009 12.9632
ltoes -18.3487
819
root 0.438078 17.862 0.594709 0.739393 3.0695 -8.40717
lowerback 2.76718 4.08793 6.5563
upperback -0.669967 5.75156 3.06267
thorax -1.91641 2.8088 -0.729226
lowerneck -16.0972 -1.13465 3.58866
upperneck 19.4717 -1.50688 -4.36583
head 8.66683 -0.903646 -2.25649
rclavicle 5.03826e-014 -5.56597e-015
rhumerus -33.8227 -6.00049 -81.6863
rradius 40.1175
rwrist -11.288
rhand -18.3012 -4.34062
rfingers 7.12502
rthumb 7.97964 -34.17
lclavicle 5.03826e-014 -5.56597e-015
lhumerus -49.0181 2.70788 80.1695
lradius 36.9394
lwrist 14.4363
lhand -13.1616 0.270892
lfingers 7.12502
lthumb 12.9374 29.8498
rfemur 13.9472 0.794655 34.3975
rtibia 6.766
rfoot -8.86534 -18.8385
rtoes -7.03257
lfemur -28.9002 -0.612796 -10.5253
ltibia 24.6151
lfoot -13.4902 13.0008
ltoes -18.4913
820
root 0.45347 17.8661 0.658368 0.922626 3.11476 -8.29287
lowerback 2.71828 4.0994 6.37606
upperback -0.764399 5.76168 3.02052
thorax -1.999 2.81229 -0.675316
lowerneck -16.0439 -1.14751 3.58111
upperneck 19.4085 -1.52609 -4.34927
head 8.63504 -0.911382 -2.24984
rclavicle -5.04727e-014 -3.97569e-016
rhumerus -33.8614 -6.14703 -81.6574
rradius 39.8923
rwrist -11.2226
rhand -18.301 -4.31326
rfingers 7.12502
rthumb 7.97988 -34.1426
lclavicle -5.04727e-014 -3.97569e-016
lhumerus -49.0757 2.8512 80.0477
lradius 36.7193
lwrist 14.3102
lhand -13.1756 0.226919
lfingers 7.12502
lthumb 12.9239 29.8067
rfemur 14.1678 0.825457 34.2581
rtibia 6.39684
rfoot -8.62592 -18.8326
rtoes -7.21427
lfemur -28.8965 -0.606584 -10.6922
ltibia 24.4818
lfoot -13.2453 13.0157
ltoes -18.5666
821
root 0.467882 17.8715 0.721414 1.10311 3.19443 -8.13403
lowerback 2.67881 4.09798 6.13339
upperback -0.846365 5.75247 2.97404
thorax -2.08048 2.80748 -0.591533
lowerneck -16.001 -1.1466 3.58873
upperneck 19.2889 -1.52592 -4.359
head 8.58653 -0.912061 -2.25142
rclavicle 2.5345e-014 2.18663e-015
rhumerus -33.8622 -6.3009 -81.6239
rradius 39.6373
rwrist -11.1552
rhand -18.3135 -4.30243
rfingers 7.12502
rthumb 7.96773 -34.1323
lclavicle 2.5345e-014 2.18663e-015
lhumerus -49.0763 3.04339 79.9071
lradius 36.4374
lwrist 14.1525
lhand -13.1922 0.222121
lfingers 7.12502
lthumb 12.908 29.8029
rfemur 14.3177 0.81989 34.0733
rtibia 6.16157
rfoot -8.41108 -18.8417
rtoes -7.43792
lfemur -28.8992 -0.551836 -10.92
ltibia 24.3523
lfoot -12.9936 12.9811
ltoes -18.5555
822
root 0.481533 17.8774 0.783518 1.27644 3.31491 -7.95681
lowerback 2.65237 4.08052 5.85958
upperback -0.914512 5.72109 2.92959
thorax -2.15909 2.79266 -0.48839
lowerneck -16.009 -1.1375 3.59816
upperneck 19.1967 -1.51418 -4.37665
head 8.55697 -0.908265 -2.25593
rclavicle 6.1148e-014 4.81059e-014
rhumerus -33.8286 -6.46143 -81.5856
rradius 39.3572
rwrist -11.0896
rhand -18.3254 -4.29415
rfingers 7.12502
rthumb 7.95633 -34.1244
lclavicle 6.1148e-014 4.81059e-014
lhumerus -49.0274 3.28403 79.7501
lradius 36.1072
lwrist 13.9502
lhand -13.2042 0.24468
lfingers 7.12502
lthumb 12.8963 29.8262
rfemur 14.2402 0.770105 33.8679
rtibia 6.3771
rfoot -8.38651 -18.902
rtoes -7.71089
lfemur -28.9316 -0.460306 -11.1781
ltibia 24.3052
lfoot -12.7903 12.8785
ltoes -18.5335
823
root 0.49504 17.8831 0.845607 1.42946 3.47322 -7.77762
lowerback 2.64679 4.05175 5.588
upperback -0.974257 5.67574 2.88263
thorax -2.24062 2.77114 -0.38966
lowerneck -16.066 -1.12181 3.62444
upperneck 19.15 -1.49528 -4.40787
head 8.5518 -0.901448 -2.26859
rclavicle 1.45057e-013 4.07509e-014
rhumerus -33.7862 -6.65213 -81.5413
rradius 39.0504
rwrist -10.9938
rhand -18.3417 -4.27123
rfingers 7.12502
rthumb 7.94059 -34.1021
lclavicle 1.45057e-013 4.07509e-014
lhumerus -48.9484 3.52871 79.5831
lradius 35.7444
lwrist 13.745
lhand -13.2162 0.323217
lfingers 7.12502
lthumb 12.8848 29.9055
rfemur 14.1011 0.67702 33.6609
rtibia 6.74311
rfoot -8.38746 -18.9801
rtoes -8.04068
lfemur -28.9388 -0.32618 -11.4546
ltibia 24.2794
lfoot -12.6128 12.6807
ltoes -18.5174
